<svg t="1657528169070" class="icon" viewBox="0 0 1024 1024" version="1.1" xmlns="http://www.w3.org/2000/svg" p-id="3364" width="200" height="200"><path d="M425.233356 56.145741h63.055104c73.705676 4.049223 144.222729 30.305213 218.037899 33.282011 27.332509 1.688455 53.587476-7.063883 79.196736-15.530718 6.277984 16.930601 12.766768 33.716916 18.86772 50.684356-24.820292 8.606005-50.216705 16.532535-76.544327 18.433838-52.977585 3.121084-105.08843-9.827833-156.73981-19.76516-97.55792-23.706935-201.397916-14.669094-295.976992 17.540492-6.633071-16.819061-13.558807-33.534767-19.909445-50.466392 54.558593-19.940145 112.267946-29.877471 170.013115-34.178427zM189.86986 168.231539c36.729529 0.068562 73.492828-0.183172 110.222357 0.140193 16.998139 87.194898 33.859155 174.391842 50.680263 261.619486-71.448262 0.24764-142.895501-0.073678-214.378555 0.143263 17.464767-87.370907 35.650965-174.602643 53.475935-261.902942z m36.262902 55.559387c-9.362228 50.214658-18.686594 100.429317-28.193109 150.60509 31.205723-0.034792 62.446237 0.500397 93.65196-0.286526-9.759271-49.962925-20.014846-99.893104-29.486568-149.926638-11.978822-0.718361-23.992437-0.252757-35.972283-0.391926z" fill="" p-id="3365"></path><path d="M385.386836 321.204559c62.58643 53.084009 124.852566 106.561991 187.370435 159.789263-0.035816-53.192479-0.071631-106.419751 0-159.647023 62.300928 52.870138 124.207883 106.132202 186.476065 159.071925 0.032746-53.227272-0.074701-106.453521 0.032746-159.680792 62.768579 53.837162 126.038578 107.099227 188.482768 161.298639-0.50142 140.492778-0.068562 280.986579-0.212847 421.443541 17.646915 0.071631 35.259038 0.035816 52.905953 0.035816v56.490596H42.778804v-56.490596c17.645892 0 35.258015 0.068562 52.903907-0.035816V481.281371c96.520287-0.286526 193.075367 0 289.595654-0.140193 0.10847-53.30402-0.073678-106.637716 0.108471-159.936619z m52.831252 105.986893c0 18.008142-0.034792 35.976376 0.033769 53.983495 21.089317 0.034792 42.144866-0.107447 63.234183 0.070609-21.015639-18.11252-42.143842-36.08587-63.267952-54.054104z m184.79068-0.357134c-0.147356 18.078751-0.074701 36.19127-0.074701 54.30686 21.125133 0.034792 42.218544 0.105401 63.303768-0.038885-20.871353-18.365276-42.178635-36.155455-63.229067-54.267975z m186.43718 0.251734c-0.032746 18.005073-0.032746 36.046984 0 54.055126 21.125133 0.069585 42.218544 0.034792 63.302744 0a39415.268128 39415.268128 0 0 0-63.302744-54.055126z m-660.822491 106.096386c-0.035816 123.456776-0.070608 246.87569 0 370.332467 248.668523 0 497.302253 0.035816 745.973846 0 0.068562-123.4578 0.035816-246.876714 0-370.332467H148.623457z" fill="" p-id="3366"></path><path d="M426.991396 642.326231c35.113729 0.576121 70.264297 0.035816 105.379049 0.288572 0 17.6111 0.032746 35.222199-0.035816 52.834322-35.258015 0.033769-70.51603 0.033769-105.738229 0 0.143263-17.685801-0.50142-35.406394 0.394996-53.122894zM604.140025 642.614803c35.543517 0 71.124897-0.145309 106.671485 0.068562-0.035816 17.577331 0.032746 35.153638-0.035816 52.764737-35.543517 0.069585-71.053266 0-106.596783 0.033769-0.147356-17.610076-0.074701-35.255968-0.038886-52.867068zM772.715395 642.614803c35.259038 0.033769 70.555939-0.217964 105.809861 0.105401-0.069585 17.575284 0 35.152615-0.069585 52.728921-35.222199 0.069585-70.481238 0.033769-105.740276 0.03377a6794.494261 6794.494261 0 0 1 0-52.868092z" fill="" p-id="3367"></path></svg>