<svg t="1657528018189" class="icon" viewBox="0 0 1024 1024" version="1.1" xmlns="http://www.w3.org/2000/svg" p-id="1592" width="200" height="200"><path d="M559.542857 680.594286h-3.291428l-137.508572-51.931429a29.257143 29.257143 0 0 1-9.508571-48.64l109.714285-102.765714a29.257143 29.257143 0 0 1 29.257143-6.217143l117.394286 40.228571a28.891429 28.891429 0 0 1 18.651429 19.748572 234.788571 234.788571 0 0 1 227.84 12.8c36.571429-92.525714 57.417143-178.102857 53.028571-211.017143-10.971429-82.651429-359.862857-182.857143-484.571429-161.28C344.502857 192.731429 34.377143 400.457143 58.88 599.771429c8.411429 69.851429 320.365714 203.337143 516.754286 247.954285a233.325714 233.325714 0 0 1-16.091429-167.497143z m59.611429-295.862857l68.388571-63.268572a29.257143 29.257143 0 0 1 28.891429-6.217143l85.211428 27.428572a29.257143 29.257143 0 0 1 13.531429 46.445714l-56.685714 69.12a29.257143 29.257143 0 0 1-32.182858 9.142857l-96.914285-33.28a29.257143 29.257143 0 0 1-10.605715-49.371428z m-213.577143-73.142858l68.022857-58.514285a29.257143 29.257143 0 0 1 28.16-5.851429l83.382857 26.331429a29.257143 29.257143 0 0 1 10.971429 49.371428l-64.731429 61.074286a29.257143 29.257143 0 0 1-29.257143 6.217143l-87.04-29.988572a29.257143 29.257143 0 0 1-9.874285-49.737142z m-109.714286 270.628572l-96.182857-36.571429a29.257143 29.257143 0 0 1-8.777143-49.737143l109.714286-95.085714a29.257143 29.257143 0 0 1 28.525714-6.217143l92.891429 31.817143a29.257143 29.257143 0 0 1 10.605714 49.005714L325.485714 575.268571a29.257143 29.257143 0 0 1-30.354285 5.851429z" p-id="1593"></path><path d="M892.342857 595.017143a182.857143 182.857143 0 1 0 76.8 146.285714 180.297143 180.297143 0 0 0-76.8-146.285714z m-104.594286 232.96A144.091429 144.091429 0 0 1 658.285714 743.131429 141.531429 141.531429 0 0 1 787.382857 658.285714a139.702857 139.702857 0 0 1 68.022857 17.92 141.897143 141.897143 0 0 1 61.44 66.925715 141.531429 141.531429 0 0 1-129.462857 84.845714z" p-id="1594"></path><path d="M787.382857 710.582857a32.548571 32.548571 0 1 0 0 64.731429 31.817143 31.817143 0 0 0 13.531429-3.291429 32.182857 32.182857 0 0 0 18.651428-29.257143 32.182857 32.182857 0 0 0-32.182857-32.182857z" p-id="1595"></path></svg>