<svg t="1660617509604" class="icon" viewBox="0 0 1024 1024" version="1.1" xmlns="http://www.w3.org/2000/svg" p-id="4723" width="32" height="32"><path d="M948.2 492.5c-7.8-8.2-18.5-12.9-29.8-13.2s-22.1 3.8-30.4 11.7c-8.8 8.1-13 18.4-13.3 29.9-2.4 93.6-40.1 181.6-106.2 247.7-141.4 141.5-371.6 141.5-513.1 0s-141.5-371.7 0-513.2 371.6-141.5 513 0.1c16.7 16.7 43.8 16.6 60.4 0 16.7-16.7 16.7-43.8 0.1-60.5-174.7-174.7-459.1-174.8-633.8 0s-174.7 459.2 0 633.9 459.1 174.7 633.8 0C910.6 747.2 957.1 638.5 960 523c0.2-11.4-3.9-22.2-11.8-30.5z" p-id="4724"></path><path d="M689.4 272h-98.6L515 418.5 438.5 272H334.6c-6.2 0-10 6.7-7 12l92.6 162.7h-62.6c-4.4 0-8 3.6-8 8.1v56.9c0 4.4 3.6 8 8 8h103.2v41.9H357.6c-4.4 0-8 3.6-8 8v56.9c0 4.4 3.6 8 8 8h103.2V744c0 4.4 3.6 8 8 8h88.7c4.4 0 8-3.6 8-8V634.4h106.7c4.4 0 8-3.6 8-8v-56.9c0-4.4-3.6-8-8-8H565.5v-41.9h106.8c4.4 0 8-3.6 8-8v-56.9c0-4.4-3.6-8-8-8h-68.5L696.4 284c3-5.4-0.9-12-7-12z" p-id="4725" ></path></svg>