<svg t="1660621415946" class="icon" viewBox="0 0 1024 1024" version="1.1" xmlns="http://www.w3.org/2000/svg" p-id="6900" width="32" height="32"><path d="M968.32 704a30.08 30.08 0 0 0 0-10.88l-92.16-486.4a161.92 161.92 0 0 0-159.36-128H307.2a161.92 161.92 0 0 0-159.36 128L55.68 691.84a30.08 30.08 0 0 0 0 10.88 197.76 197.76 0 0 0-7.68 52.48 200.32 200.32 0 0 0 199.68 199.68h528.64a200.32 200.32 0 0 0 199.68-199.68 197.12 197.12 0 0 0-7.68-51.2zM208 216.96A100.48 100.48 0 0 1 307.2 135.68h409.6a100.48 100.48 0 0 1 99.2 81.28l70.4 371.84a198.4 198.4 0 0 0-110.08-33.28H247.68a198.4 198.4 0 0 0-110.08 33.28zM776.32 896H247.68a138.88 138.88 0 1 1 0-277.12h528.64a138.88 138.88 0 1 1 0 277.12z" p-id="6901"></path><path d="M532.48 724.48h-40.96a30.72 30.72 0 0 0 0 64h40.96a30.72 30.72 0 0 0 0-64zM448 462.72a123.52 123.52 0 0 0 128-135.04 24.96 24.96 0 0 0-24.96-19.2 19.2 19.2 0 0 0-20.48 19.2 72.96 72.96 0 0 1-72.32 71.04 56.32 56.32 0 0 1-60.16-71.04 138.88 138.88 0 0 1 60.16-78.08 135.04 135.04 0 0 0-105.6 78.72A96.64 96.64 0 0 0 448 462.72z"  p-id="6902"></path><path d="M464 349.44a24.32 24.32 0 0 0 24.96-21.12 58.88 58.88 0 0 1 64-51.84 78.08 78.08 0 0 1 74.24 51.84 157.44 157.44 0 0 1-23.04 128 94.08 94.08 0 0 0 68.48-131.2 136.32 136.32 0 0 0-124.16-76.8 102.4 102.4 0 0 0-104.96 80 18.56 18.56 0 0 0 20.48 21.12z"  p-id="6903"></path></svg>